<svg viewBox="0 0 128 128" xmlns="http://www.w3.org/2000/svg" role="img" aria-label="ionnavis">
  <rect width="128" height="128" rx="26" fill="#2f6fe3"/>
  <!-- i -->
  <circle cx="30" cy="34" r="5.5" fill="#ffffff"/>
  <rect x="24.5" y="45" width="11" height="34" rx="3" fill="#ffffff"/>
  <!-- o = molécula -->
  <g stroke="#8fd4ff" stroke-width="4" stroke-linecap="round">
    <line x1="64" y1="62" x2="64" y2="44"/>
    <line x1="64" y1="62" x2="80" y2="62"/>
    <line x1="64" y1="62" x2="64" y2="80"/>
    <line x1="64" y1="62" x2="48" y2="62"/>
  </g>
  <circle cx="64" cy="62" r="10" fill="#ffffff"/>
  <circle cx="64" cy="42" r="5.5" fill="#8fd4ff"/>
  <circle cx="84" cy="62" r="5.5" fill="#8fd4ff"/>
  <circle cx="64" cy="82" r="5.5" fill="#8fd4ff"/>
  <circle cx="44" cy="62" r="5.5" fill="#8fd4ff"/>
  <!-- n -->
  <rect x="92.5" y="45" width="11" height="34" rx="3" fill="#ffffff"/>
  <path d="M92 56 q11 -12 22 0 v23 h-11 v-19 q-5 -5 -11 0 Z" fill="#ffffff"/>
  <!-- navis -->
  <text x="64" y="112" text-anchor="middle" font-family="Arial, Helvetica, sans-serif" font-size="26" font-weight="700" fill="#ffffff">navis</text>
</svg>
