<svg xmlns="http://www.w3.org/2000/svg" viewBox="0 0 760 480" width="760" height="480" font-family="system-ui, -apple-system, Segoe UI, Roboto, sans-serif" role="img" aria-label="CRM · relacions amb clients">
<defs><filter id="sh" x="-5%" y="-5%" width="110%" height="115%"><feDropShadow dx="0" dy="8" stdDeviation="14" flood-color="#0a5e4b" flood-opacity="0.18"/></filter></defs>
<rect width="760" height="480" fill="#ecfdf5"/>
<rect x="40" y="28" width="680" height="424" rx="16" fill="#ffffff" stroke="#d8e0e6" filter="url(#sh)"/>
<path d="M40 44 a16 16 0 0 1 16 -16 h648 a16 16 0 0 1 16 16 v26 h-680 z" fill="#0d9e80"/>
<circle cx="64" cy="44" r="5" fill="#ffffff" opacity="0.85"/>
<circle cx="82" cy="44" r="5" fill="#ffffff" opacity="0.6"/>
<circle cx="100" cy="44" r="5" fill="#ffffff" opacity="0.45"/>
<text x="380" y="49" text-anchor="middle" fill="#ffffff" font-size="14" font-weight="600">CRM · relacions amb clients</text>
<rect x="60" y="90" width="200" height="62" rx="10" fill="#eff6ff" stroke="#2563eb" stroke-opacity="0.25"/>
<rect x="60" y="90" width="5" height="62" rx="2.5" fill="#2563eb"/>
<text x="78" y="112" fill="#64748b" font-size="10.5">Contactes</text>
<text x="78" y="134" fill="#1e3a8a" font-size="18" font-weight="800">420</text>
<rect x="280" y="90" width="200" height="62" rx="10" fill="#f5f3ff" stroke="#7c3aed" stroke-opacity="0.25"/>
<rect x="280" y="90" width="5" height="62" rx="2.5" fill="#7c3aed"/>
<text x="298" y="112" fill="#64748b" font-size="10.5">Oportunidades</text>
<text x="298" y="134" fill="#5b21b6" font-size="18" font-weight="800">38</text>
<rect x="500" y="90" width="200" height="62" rx="10" fill="#fff7ed" stroke="#ea580c" stroke-opacity="0.25"/>
<rect x="500" y="90" width="5" height="62" rx="2.5" fill="#ea580c"/>
<text x="518" y="112" fill="#64748b" font-size="10.5">Guanyades (mes)</text>
<text x="518" y="134" fill="#9a3412" font-size="18" font-weight="800">12</text>
<rect x="60" y="178" width="640" height="244" rx="10" fill="#ffffff" stroke="#e2e8f0"/>
<g transform="translate(380,290)">
<text x="0" y="6" text-anchor="middle" fill="#0d9e80" font-size="94" font-weight="800" letter-spacing="6">CRM</text>
<text x="0" y="52" text-anchor="middle" fill="#64748b" font-size="15">Gestió de relacions amb clients</text>
</g>
<rect x="60" y="404" width="640" height="40" fill="#ecfdf5"/>
<text x="78" y="429" fill="#0a5e4b" font-size="12" font-weight="700">Contactes, oportunitats i seguiment comercial</text>
<text x="684" y="429" text-anchor="end" fill="#0a5e4b" font-size="14" font-weight="800">CRM</text>
</svg>