<svg xmlns="http://www.w3.org/2000/svg" viewBox="0 0 760 480" width="760" height="480" font-family="system-ui, -apple-system, Segoe UI, Roboto, sans-serif" role="img" aria-label="Generador del pasaporte fitosanitario europeo con vista previa">
  <defs>
    <filter id="fsh" x="-5%" y="-5%" width="110%" height="115%">
      <feDropShadow dx="0" dy="8" stdDeviation="14" flood-color="#0e6354" flood-opacity="0.18"/>
    </filter>
    <g id="eustar"><path d="M0,-5 L1.12,-1.55 L4.76,-1.55 L1.82,0.59 L2.94,4.05 L0,1.9 L-2.94,4.05 L-1.82,0.59 L-4.76,-1.55 L-1.12,-1.55 Z" fill="#ffd617"/></g>
  </defs>
  <rect width="760" height="480" fill="#ecfdf5"/>
  <rect x="40" y="28" width="680" height="424" rx="16" fill="#ffffff" stroke="#d8e0e6" filter="url(#fsh)"/>
  <path d="M40 44 a16 16 0 0 1 16 -16 h648 a16 16 0 0 1 16 16 v26 h-680 z" fill="#0d9e80"/>
  <circle cx="64" cy="44" r="5" fill="#ffffff" opacity="0.85"/>
  <circle cx="82" cy="44" r="5" fill="#ffffff" opacity="0.6"/>
  <circle cx="100" cy="44" r="5" fill="#ffffff" opacity="0.45"/>
  <text x="380" y="49" text-anchor="middle" fill="#ffffff" font-size="14" font-weight="600">Fitoware · Generate plant passport</text>

  <!-- columna izquierda: formulario -->
  <text x="60" y="98" fill="#0f172a" font-size="13" font-weight="700">Passport data</text>

  <text x="60" y="124" fill="#64748b" font-size="11">A · Botanical species</text>
  <rect x="60" y="130" width="300" height="32" rx="8" fill="#ffffff" stroke="#cbd5e1"/>
  <text x="74" y="150" fill="#334155" font-size="12" font-style="italic">Rosa × hybrida</text>

  <text x="60" y="180" fill="#64748b" font-size="11">B · Professional operator (ROPVEG)</text>
  <rect x="60" y="186" width="300" height="32" rx="8" fill="#f1f5f9" stroke="#e2e8f0"/>
  <text x="74" y="206" fill="#64748b" font-size="12">ES-43-00123</text>

  <text x="60" y="236" fill="#64748b" font-size="11">C · Batch / traceability code</text>
  <rect x="60" y="242" width="300" height="32" rx="8" fill="#ffffff" stroke="#0d9e80"/>
  <text x="74" y="262" fill="#334155" font-size="12">L-2026-0420</text>

  <text x="60" y="292" fill="#64748b" font-size="11">D · Country of origin</text>
  <rect x="60" y="298" width="140" height="32" rx="8" fill="#ffffff" stroke="#cbd5e1"/>
  <text x="74" y="318" fill="#334155" font-size="12">ES — España</text>
  <text x="216" y="292" fill="#64748b" font-size="11">Nº de etiquetas</text>
  <rect x="216" y="298" width="144" height="32" rx="8" fill="#ffffff" stroke="#cbd5e1"/>
  <text x="230" y="318" fill="#334155" font-size="12">24</text>

  <rect x="60" y="356" width="300" height="38" rx="9" fill="#0d9e80"/>
  <path d="M82 367 v14 m-6 -6 l6 6 l6 -6 M76 387 h12" stroke="#ffffff" stroke-width="2" fill="none" stroke-linecap="round" stroke-linejoin="round"/>
  <text x="216" y="380" text-anchor="middle" fill="#ffffff" font-size="13" font-weight="700">Generate PDF</text>

  <!-- separador -->
  <line x1="392" y1="86" x2="392" y2="412" stroke="#eef2f6"/>

  <!-- columna derecha: vista previa del pasaporte -->
  <text x="420" y="98" fill="#0f172a" font-size="13" font-weight="700">Preview</text>

  <rect x="420" y="112" width="268" height="210" rx="6" fill="#ffffff" stroke="#0c7d68" stroke-width="2"/>
  <!-- bandera UE -->
  <rect x="438" y="130" width="48" height="32" rx="2" fill="#0a3aa5"/>
  <use href="#eustar" transform="translate(462,140) scale(0.42)"/>
  <use href="#eustar" transform="translate(467,141.3) scale(0.42)"/>
  <use href="#eustar" transform="translate(470.7,145) scale(0.42)"/>
  <use href="#eustar" transform="translate(472,150) scale(0.42)"/>
  <use href="#eustar" transform="translate(470.7,155) scale(0.42)"/>
  <use href="#eustar" transform="translate(467,158.7) scale(0.42)"/>
  <use href="#eustar" transform="translate(462,160) scale(0.42)"/>
  <use href="#eustar" transform="translate(457,158.7) scale(0.42)"/>
  <use href="#eustar" transform="translate(453.3,155) scale(0.42)"/>
  <use href="#eustar" transform="translate(452,150) scale(0.42)"/>
  <use href="#eustar" transform="translate(453.3,145) scale(0.42)"/>
  <use href="#eustar" transform="translate(457,141.3) scale(0.42)"/>
  <text x="498" y="142" fill="#0f172a" font-size="11" font-weight="700">Plant Passport</text>
  <text x="498" y="156" fill="#475569" font-size="9">Pasaporte Fitosanitario</text>
  <line x1="438" y1="172" x2="670" y2="172" stroke="#e2e8f0"/>

  <g font-size="10.5">
    <text x="438" y="192" fill="#0c7d68" font-weight="700">A.</text>
    <text x="458" y="192" fill="#334155" font-style="italic">Rosa × hybrida</text>
    <text x="438" y="212" fill="#0c7d68" font-weight="700">B.</text>
    <text x="458" y="212" fill="#334155">ES-43-00123</text>
    <text x="438" y="232" fill="#0c7d68" font-weight="700">C.</text>
    <text x="458" y="232" fill="#334155">L-2026-0420</text>
    <text x="438" y="252" fill="#0c7d68" font-weight="700">D.</text>
    <text x="458" y="252" fill="#334155">ES</text>
  </g>

  <!-- QR -->
  <rect x="600" y="184" width="70" height="70" rx="4" fill="#ffffff" stroke="#e2e8f0"/>
  <g fill="#0f172a">
    <rect x="608" y="192" width="16" height="16"/><rect x="646" y="192" width="16" height="16"/><rect x="608" y="230" width="16" height="16"/>
    <rect x="611" y="195" width="10" height="10" fill="#ffffff"/><rect x="649" y="195" width="10" height="10" fill="#ffffff"/><rect x="611" y="233" width="10" height="10" fill="#ffffff"/>
    <rect x="613" y="197" width="6" height="6" fill="#0f172a"/><rect x="651" y="197" width="6" height="6" fill="#0f172a"/><rect x="613" y="235" width="6" height="6" fill="#0f172a"/>
    <rect x="630" y="194" width="4" height="4"/><rect x="636" y="200" width="4" height="4"/><rect x="630" y="206" width="4" height="4"/><rect x="642" y="212" width="4" height="4"/><rect x="630" y="218" width="4" height="4"/><rect x="648" y="224" width="4" height="4"/><rect x="636" y="230" width="4" height="4"/><rect x="654" y="236" width="4" height="4"/><rect x="630" y="242" width="4" height="4"/><rect x="642" y="242" width="4" height="4"/><rect x="648" y="236" width="4" height="4"/>
  </g>
  <line x1="438" y1="296" x2="670" y2="296" stroke="#e2e8f0"/>
  <text x="438" y="312" fill="#64748b" font-size="9">Vivero Demos S.L. · Reus (Tarragona)</text>

  <text x="420" y="346" fill="#94a3b8" font-size="10.5">A·B·C·D elements under Regulation (EU) 2017/2313.</text>
</svg>
